REM DIRINDEX 1\2,1\3
REM DIRNAME cjc052,folder01,folder02
TITLE ""
FILE "Disk1Track63.mp3" MP3
  TRACK 01 AUDIO
    TITLE "2:cjc052_0437"
    INDEX 01 00:00:00
  TRACK 02 AUDIO
    TITLE "2:cjc052_0438"
    INDEX 01 00:08:32
  TRACK 03 AUDIO
    TITLE "2:cjc052_0439"
    INDEX 01 00:16:38
  TRACK 04 AUDIO
    TITLE "2:cjc052_0440"
    INDEX 01 00:26:44
  TRACK 05 AUDIO
    TITLE "2:cjc052_0441"
    INDEX 01 00:31:37
  TRACK 06 AUDIO
    TITLE "0:"
    INDEX 01 00:42:08
